Coordinates
version=1
nRows=27
nColumns=12
inDegrees=yes

Units are S.I. units (second, meters, Newtons, ...)
Angles are in degrees

endheader
time	SC_y	SC_z	SC_x	AC_y	AC_z	AC_x	GH_y	GH_z	GH_yy	EL_x	PS_y
       0.0              -42.02          23.11          75.92          53.89         -6.411           19.3         -81.78          53.35         -14.64          119.0          158.8
   0.02856              -42.02           23.1          75.91          53.89          -6.41           19.3         -81.78          53.34         -14.61          119.0          158.8
   0.05711              -42.02           23.1           75.9          53.89         -6.409           19.3         -81.79          53.33         -14.58          119.0          158.8
   0.08567              -42.03           23.1          75.89          53.89         -6.408          19.29          -81.8          53.32         -14.55          119.0          158.8
    0.1142              -42.03           23.1          75.87           53.9         -6.407          19.29          -81.8          53.31         -14.52          119.0          158.8
    0.1428              -42.03          23.09          75.86           53.9         -6.406          19.29         -81.81           53.3         -14.48          119.0          158.8
    0.1713              -42.03          23.09          75.84           53.9         -6.405          19.29         -81.82          53.29         -14.44          119.0          158.7
    0.1999              -42.03          23.09          75.83           53.9         -6.404          19.29         -81.83          53.28          -14.4          119.0          158.7
    0.2284              -42.03          23.09          75.81          53.91         -6.403          19.29         -81.83          53.27         -14.36          119.0          158.7
     0.257              -42.04          23.08          75.79          53.91         -6.402          19.29         -81.84          53.26         -14.31          119.0          158.7
    0.2856              -42.04          23.08          75.77          53.92         -6.401          19.29         -81.85          53.24         -14.26          119.0          158.7
    0.3141              -42.04          23.08          75.75          53.92         -6.399          19.29         -81.86          53.23          -14.2          119.0          158.7
    0.3427              -42.04          23.07          75.73          53.93         -6.398          19.28         -81.88          53.21         -14.14          119.0          158.7
    0.3712              -42.05          23.07          75.71          53.93         -6.396          19.28         -81.89          53.19         -14.08          119.1          158.6
    0.3998              -42.05          23.06          75.68          53.94         -6.394          19.28          -81.9          53.18         -14.01          119.1          158.6
    0.4283              -42.05          23.06          75.65          53.94         -6.392          19.28         -81.92          53.15         -13.94          119.1          158.6
    0.4569              -42.06          23.05          75.62          53.95          -6.39          19.28         -81.93          53.13         -13.85          119.1          158.6
    0.4855              -42.06          23.05          75.58          53.95         -6.388          19.28         -81.95          53.11         -13.77          119.1          158.6
     0.514              -42.07          23.04          75.55          53.96         -6.386          19.27         -81.97          53.08         -13.67          119.1          158.5
    0.5426              -42.07          23.03          75.51          53.97         -6.383          19.27         -81.99          53.05         -13.56          119.1          158.5
    0.5711              -42.08          23.02          75.46          53.98          -6.38          19.27         -82.01          53.02         -13.45          119.1          158.5
    0.5997              -42.08          23.02          75.41          53.99         -6.377          19.26         -82.04          52.99         -13.32          119.1          158.4
    0.6282              -42.09          23.01          75.36           54.0         -6.373          19.26         -82.07          52.95         -13.18          119.1          158.4
    0.6568               -42.1           23.0           75.3          54.01         -6.369          19.26          -82.1           52.9         -13.02          119.1          158.3
    0.6853               -42.1          22.98          75.23          54.03         -6.364          19.25         -82.13          52.86         -12.85          119.1          158.3
    0.7139              -42.11          22.97          75.15          54.04         -6.359          19.25         -82.17           52.8         -12.65          119.1          158.2
    0.7425              -42.12          22.96          75.07          54.06         -6.354          19.24         -82.21          52.74         -12.43          119.1          158.2
